<?xml version="1.0" encoding="UTF-8"?><svg id="_" xmlns="http://www.w3.org/2000/svg" viewBox="0 0 1000 128.71"><defs><style>.cls-1{fill:#127cb3;}.cls-2{fill:#0dacff;}.cls-3{fill:#12b338;}.cls-4{fill:#ff4600;}</style></defs><path d="M935.64,14.85c-27.34,0-49.5,22.16-49.5,49.5s22.16,49.5,49.5,49.5,49.5-22.16,49.5-49.5-22.16-49.5-49.5-49.5Zm0,79.21c-16.4,0-29.7-13.3-29.7-29.7s13.3-29.7,29.7-29.7,29.7,13.3,29.7,29.7-13.3,29.7-29.7,29.7Z"/><g id="CIRCLE"><circle cx="500" cy="64.36" r="19.8"/></g><g id="LWPOLYLINE"><path d="M24.75,4.95c1.37,0,2.48-1.11,2.48-2.48s-1.11-2.48-2.48-2.48C11.08,0,0,11.08,0,24.75c0,1.37,1.11,2.48,2.48,2.48s2.48-1.11,2.48-2.48C4.95,13.82,13.82,4.95,24.75,4.95Z"/></g><g id="LWPOLYLINE-2"><path class="cls-2" d="M341.58,24.75V103.96c0,5.47,4.43,9.9,9.9,9.9s9.9-4.43,9.9-9.9v-29.7h59.41v29.7c0,5.47,4.43,9.9,9.9,9.9s9.9-4.43,9.9-9.9V24.75c0-5.47-4.43-9.9-9.9-9.9s-9.9,4.43-9.9,9.9v29.7h-59.41V24.75c0-5.47-4.43-9.9-9.9-9.9s-9.9,4.43-9.9,9.9Z"/></g><g id="LWPOLYLINE-3"><path class="cls-1" d="M123.76,64.36c0,27.34,22.16,49.5,49.5,49.5s49.5-22.16,49.5-49.5V24.75c0-5.47-4.43-9.9-9.9-9.9s-9.9,4.43-9.9,9.9v39.6c0,16.4-13.3,29.7-29.7,29.7s-29.7-13.3-29.7-29.7V24.75c0-5.47-4.43-9.9-9.9-9.9s-9.9,4.43-9.9,9.9v39.6Z"/></g><g id="LWPOLYLINE-4"><path class="cls-4" d="M450.5,64.36c0,27.34,22.16,49.5,49.5,49.5s49.5-22.16,49.5-49.5V24.75c0-5.47-4.43-9.9-9.9-9.9s-9.9,4.43-9.9,9.9v39.6c0,16.4-13.3,29.7-29.7,29.7s-29.7-13.3-29.7-29.7V24.75c0-5.47-4.43-9.9-9.9-9.9s-9.9,4.43-9.9,9.9v39.6Z"/></g><g id="LWPOLYLINE-5"><path d="M57.18,73.21c3.77,3.96,10.04,4.12,14,.35,.12-.11,.24-.23,.35-.35l22.53-23.68v54.43c0,5.47,4.43,9.9,9.9,9.9s9.9-4.43,9.9-9.9V24.75c0-5.47-4.43-9.9-9.9-9.9-2.71,0-5.3,1.11-7.17,3.08l-32.43,34.09L31.93,17.93c-3.77-3.96-10.04-4.12-14-.35-1.96,1.87-3.08,4.46-3.08,7.17V103.96c0,5.47,4.43,9.9,9.9,9.9s9.9-4.43,9.9-9.9V49.53l22.53,23.68Z"/></g><g id="LWPOLYLINE-6"><path class="cls-2" d="M601.74,73.21c3.77,3.96,10.04,4.12,14,.35,.12-.11,.24-.23,.35-.35l22.53-23.68v54.43c0,5.47,4.43,9.9,9.9,9.9s9.9-4.43,9.9-9.9V24.75c0-5.47-4.43-9.9-9.9-9.9-2.71,0-5.3,1.11-7.17,3.08l-32.43,34.09-32.43-34.09c-3.77-3.96-10.04-4.12-14-.35-1.96,1.87-3.08,4.46-3.08,7.17V103.96c0,5.47,4.43,9.9,9.9,9.9s9.9-4.43,9.9-9.9V49.53l22.53,23.68Z"/></g><g id="LWPOLYLINE-7"><path class="cls-3" d="M292.08,103.96v-33.62l36.88-38.77c3.77-3.96,3.61-10.23-.35-14s-10.23-3.61-14,.35l-32.43,34.09-32.43-34.09c-3.77-3.96-10.04-4.12-14-.35s-4.12,10.04-.35,14l36.88,38.77v33.62c0,5.47,4.43,9.9,9.9,9.9s9.9-4.43,9.9-9.9Z"/></g><g id="LWPOLYLINE-8"><path class="cls-3" d="M766.28,99.53l-39.6-79.21c-2.45-4.89-8.39-6.87-13.28-4.43-1.92,.96-3.47,2.51-4.43,4.43l-39.6,79.21c-2.45,4.89-.46,10.84,4.43,13.28s10.84,.46,13.28-4.43l30.75-61.5,30.75,61.5c2.45,4.89,8.39,6.87,13.28,4.43,4.89-2.45,6.87-8.39,4.43-13.28Z"/></g><g id="LWPOLYLINE-9"><path class="cls-1" d="M856.44,80.06l-62.31-62.31c-3.87-3.87-10.14-3.87-14,0-1.86,1.86-2.9,4.38-2.9,7V103.96c0,5.47,4.43,9.9,9.9,9.9s9.9-4.43,9.9-9.9V48.66l62.31,62.31c3.87,3.87,10.14,3.87,14,0,1.86-1.86,2.9-4.38,2.9-7V24.75c0-5.47-4.43-9.9-9.9-9.9s-9.9,4.43-9.9,9.9v55.3Z"/></g><g id="LWPOLYLINE-10"><path d="M935.64,128.71c35.54,0,64.36-28.81,64.36-64.36,0-1.37-1.11-2.48-2.48-2.48s-2.48,1.11-2.48,2.48c0,32.81-26.6,59.41-59.41,59.41-1.37,0-2.48,1.11-2.48,2.48s1.11,2.48,2.48,2.48Z"/></g></svg>